<?xml version="1.0" encoding="utf-8"?>
<!-- Generator: Adobe Illustrator 21.0.2, SVG Export Plug-In . SVG Version: 6.00 Build 0)  -->
<svg version="1.1" id="Layer_1" xmlns="http://www.w3.org/2000/svg" xmlns:xlink="http://www.w3.org/1999/xlink" x="0px" y="0px"
	 viewBox="0 0 47 36" style="enable-background:new 0 0 47 36;" xml:space="preserve">
<style type="text/css">
	.st0{fill:#FFFFFF;}
</style>
<g>
	<g>
		<g>
			<path class="st0" d="M35.2,30.5c0,0.9,0.7,1.6,1.6,1.6s1.6-0.7,1.6-1.6c0-0.9-0.7-1.6-1.6-1.6S35.2,29.7,35.2,30.5z"/>
			<path class="st0" d="M7.8,30.5c0,0.9,0.7,1.6,1.6,1.6c0.9,0,1.6-0.7,1.6-1.6c0-0.9-0.7-1.6-1.6-1.6C8.5,29,7.8,29.7,7.8,30.5z"/>
			<path class="st0" d="M13.3,7.8H4l-3.3,3.6h0C0.2,12,0,12.6,0,13.2l0,2.4h13.3V7.8z"/>
			<path class="st0" d="M6.3,21.9c0,0.4-0.4,0.8-0.8,0.8H0l0,6.7c0,1,0.8,1.9,1.9,1.9H4C4.4,34,6.6,36,9.4,36s5-2,5.4-4.7h16.6
				c0.4,2.7,2.7,4.7,5.4,4.7c2.8,0,5-2,5.4-4.7h0.5c1,0,1.9-0.8,1.9-1.9v-6.6l1.6-7.1H32.9c-0.4,0-0.8-0.4-0.8-0.8
				c0-0.4,0.4-0.8,0.8-0.8h13.8l0.3-1.4c0-0.2,0-0.3,0-0.5l-0.2-0.5h-9.9c-0.4,0-0.8-0.4-0.8-0.8s0.4-0.8,0.8-0.8h9.3l-2.3-5.8
				c-0.1-0.3-0.4-0.5-0.7-0.5H27.7c-0.3,0-0.6-0.2-0.7-0.5l-1.2-3C25.7,0.2,25.4,0,25.1,0l-3.9,0l-0.8,0l-5.5,0
				c-0.4,0-0.8,0.4-0.8,0.8s0.4,0.8,0.8,0.8h4.8l2.9,20.4h-3.8V5.3c0-1.2-1-2.2-2.2-2.2H9.4C8.7,3.1,8,3.4,7.5,4L5.4,6.3h8.1
				c0.7,0,1.3,0.6,1.3,1.3v8.3c0,0.7-0.6,1.3-1.3,1.3H0l0,3.9h5.5C5.9,21.1,6.3,21.5,6.3,21.9z M32.9,30.5c0-2.2,1.8-3.9,3.9-3.9
				c2.2,0,3.9,1.8,3.9,3.9c0,2.2-1.8,3.9-3.9,3.9C34.7,34.5,32.9,32.7,32.9,30.5z M9.4,26.6c2.2,0,3.9,1.8,3.9,3.9
				c0,2.2-1.8,3.9-3.9,3.9c-2.2,0-3.9-1.8-3.9-3.9S7.2,26.6,9.4,26.6z"/>
		</g>
	</g>
</g>
</svg>
