<?xml version="1.0" encoding="utf-8"?>
<!-- Generator: Adobe Illustrator 21.0.2, SVG Export Plug-In . SVG Version: 6.00 Build 0)  -->
<svg version="1.1" id="Layer_1" xmlns="http://www.w3.org/2000/svg" xmlns:xlink="http://www.w3.org/1999/xlink" x="0px" y="0px"
	 viewBox="0 0 47 42.1" style="enable-background:new 0 0 47 42.1;" xml:space="preserve">
<style type="text/css">
	.st0{fill:#3A3A3A;}
</style>
<g>
	<g>
		<g>
			<path class="st0" d="M37.1,36.3c0,0.9,0.7,1.6,1.6,1.6c0.9,0,1.6-0.7,1.6-1.6c0-0.9-0.7-1.6-1.6-1.6
				C37.8,34.6,37.1,35.4,37.1,36.3z"/>
			<path class="st0" d="M8.2,36.3c0,0.9,0.7,1.6,1.6,1.6s1.6-0.7,1.6-1.6c0-0.9-0.7-1.6-1.6-1.6C9,34.6,8.2,35.4,8.2,36.3z"/>
			<path class="st0" d="M0.1,22.3H14v-9.9H9.9c-0.8,0-1.5,0.3-2,0.9l-7.2,7.9h0C0.4,21.5,0.2,21.9,0.1,22.3z"/>
			<path class="st0" d="M6.6,27.2c0,0.5-0.4,0.8-0.8,0.8H0l0,7.1c0,1.1,0.9,2,2,2h2.2c0.4,2.8,2.8,4.9,5.7,4.9
				c2.9,0,5.3-2.2,5.7-4.9H33c0.4,2.8,2.8,4.9,5.7,4.9c2.9,0,5.3-2.2,5.7-4.9H45c1.1,0,2-0.9,2-2V28v-0.8V15.7V0.8
				C47,0.4,46.6,0,46.2,0l-9.1,0c-0.3,0-0.6,0.2-0.7,0.4c-0.1,0.3-0.1,0.6,0,0.8l2.3,4l-3.8-1c-0.2,0-0.3,0-0.5,0l-1.9,0.6l4.4,11.8
				c-0.2,0-0.4-0.1-0.6-0.1c-0.4,0-0.8,0.1-1.1,0.2L30.9,5.3l-4,1.3c-0.1,0-0.2,0.1-0.3,0.2l-4.9,4.9c-0.2,0.2-0.3,0.5-0.2,0.8
				l1.7,6l-3.4,6.2V14.6c0-1.3-1-2.3-2.3-2.3h-1.9v10.1c0,0.8-0.6,1.4-1.4,1.4H0l0,2.5h5.8C6.2,26.4,6.6,26.8,6.6,27.2z M43.7,20.5
				l1.6-2.3v9h-1.6V20.5z M40.9,5.8l-2.4-4.2h6.8V10l-0.9-2.9c-0.1-0.3-0.3-0.5-0.6-0.6L40.9,5.8z M42.1,22.3v4.9h-2.5v-4L42.1,22.3
				z M34.6,36.3c0-2.3,1.8-4.1,4.1-4.1c2.3,0,4.1,1.8,4.1,4.1c0,2.3-1.8,4.1-4.1,4.1C36.5,40.4,34.6,38.6,34.6,36.3z M34.6,19.8
				c0-0.9,0.7-1.6,1.6-1.6c0.9,0,1.6,0.7,1.6,1.6v2.8v4.6h-3.3v-2.8V19.8z M33,27.2H20.4l3.5-6.4l0.9,3.3c0.1,0.3,0.4,0.6,0.7,0.6
				l7.4,0.8c0,0,0.1,0,0.1,0V27.2L33,27.2z M9.9,32.2c2.3,0,4.1,1.8,4.1,4.1c0,2.3-1.8,4.1-4.1,4.1c-2.3,0-4.1-1.8-4.1-4.1
				C5.8,34,7.6,32.2,9.9,32.2z"/>
		</g>
	</g>
</g>
</svg>
