<?xml version="1.0" encoding="utf-8"?>
<!-- Generator: Adobe Illustrator 19.0.1, SVG Export Plug-In . SVG Version: 6.00 Build 0)  -->
<svg version="1.1" id="Слой_1" xmlns="http://www.w3.org/2000/svg" xmlns:xlink="http://www.w3.org/1999/xlink" x="0px" y="0px"
	 viewBox="0 0 73 46.7" style="enable-background:new 0 0 73 46.7;" xml:space="preserve">
<style type="text/css">
	.st0{fill:#FFFFFF;}
</style>
<g>
	<g>
		<g>
			<path class="st0" d="M33.8,36.4c-0.4-0.4-0.6-1-0.6-1.7c0-0.2,0-0.6,0.1-0.9L39,9.3l-0.5-6.8c0-0.8-0.3-1.4-0.8-1.9
				C37.1,0.2,36.4,0,35.6,0H19.8l-0.3,1.2c0.4,0,0.7,0.2,1.1,0.5c0.3,0.3,0.5,0.7,0.5,1.1c0,0.3-0.1,0.6-0.2,0.8L5.4,33.7
				c-0.2,0.4-0.3,0.7-0.3,1c0,1.2,0.7,1.7,2.2,1.7h11.5l0.3-1.2c-0.4,0-0.7-0.1-1-0.3c-0.3-0.2-0.5-0.5-0.5-0.8
				c0-0.2,0.1-0.4,0.1-0.4c0-0.1,0-0.2,0.1-0.3l2.2-4.3H26l0.5,5.4c0.1,0.7,0.3,1.3,0.8,1.6c0.4,0.3,1.1,0.4,2,0.4L33.8,36.4
				C33.9,36.4,33.8,36.4,33.8,36.4z M23,22l2.6-5.9L26,22H23z"/>
			<path class="st0" d="M41.7,34.7c-0.5-0.4-0.7-0.8-0.7-1.3l-1.6-20.6L34.4,34c-0.1,0.3-0.1,0.6-0.1,0.7c0,0.4,0.1,0.8,0.3,1
				c0.2,0.2,0.5,0.3,1,0.3H43l0.2-0.8C42.7,35.3,42.2,35.1,41.7,34.7z"/>
		</g>
		<path class="st0" d="M54.4,12.3h7.9c2.6,0,4.7,0.7,6.2,2.2c1.5,1.4,2.3,3.5,2.3,6.2c0,1.4-0.2,3-0.6,4.8c-0.4,1.7-0.9,3.3-1.5,4.8
			c-1,2.5-2.3,4.1-3.9,5c-1.6,0.8-4,1.3-7.2,1.3H36.1c-0.6,0-1-0.2-1.3-0.5c-0.3-0.3-0.4-0.8-0.4-1.3c0-0.2,0-0.5,0.1-0.8l7.2-30.9
			c0.1-0.4-0.1-0.8-0.4-1.1c-0.4-0.4-0.7-0.5-1.2-0.5L40.3,0H73l-1.5,5.8c-0.2,0.7-0.7,1.3-1.5,1.7c-0.8,0.4-1.6,0.7-2.4,0.7H55.3
			L54.4,12.3z M52.6,19.9L50.8,28h1.7c0.8,0,1.5-0.3,1.8-0.8c0.4-0.5,0.8-1.6,1.2-3.3c0.2-0.9,0.3-1.7,0.3-2.3
			c0-1.2-0.5-1.7-1.6-1.7H52.6z"/>
	</g>
</g>
<g>
	<g>
		<path class="st0" d="M3.9,39.9L3.1,42c-0.4,1.1-0.8,2-1.2,3h0c0.7-0.9,1.3-1.6,2-2.4l2.3-2.7h1.6l-2.5,6.8H3.9l0.8-2.1
			c0.4-1,0.7-1.8,1.1-2.7h0c-0.6,0.8-1.2,1.6-1.9,2.3l-2.1,2.4H0l2.5-6.8H3.9z"/>
		<path class="st0" d="M10.6,39.9l-1,2.7h2.5l1-2.7h1.5L12,46.7h-1.5l1-2.9H9.1l-1,2.9H6.6l2.5-6.8H10.6z"/>
		<path class="st0" d="M16.8,39.9l0.7,2.9h0.2l1-2.9H20l-1.1,2.9h0.2l2.7-2.9h1.6L20.2,43c0.8,0.3,0.8,1.2,0.8,2.1
			c0,0.6,0,1.2,0.1,1.6h-1.5c-0.1-0.5-0.1-1-0.1-1.6c0-0.8-0.2-1.3-0.8-1.3h-0.2l-1.1,2.9h-1.4l1.1-2.9h-0.2c-0.7,0-1.2,0.5-1.6,1.2
			c-0.4,0.6-0.7,1.2-1.1,1.7h-1.5c0.4-0.5,0.8-1.2,1.2-1.8c0.8-1.2,1.3-1.7,2.3-1.9l-1.1-3.1H16.8z"/>
		<path class="st0" d="M25.7,39.9L25,42c-0.4,1.1-0.8,2-1.2,3h0c0.7-0.9,1.3-1.6,2-2.4l2.3-2.7h1.6l-2.5,6.8h-1.4l0.8-2.1
			c0.4-1,0.7-1.8,1.1-2.7h0c-0.6,0.8-1.2,1.6-1.9,2.3l-2.1,2.4h-1.7l2.5-6.8H25.7z"/>
		<path class="st0" d="M32.4,39.9l-1,2.7h2.5l1-2.7h1.4l-2.5,6.8h-1.4l1-2.9H31l-1,2.9h-1.5l2.5-6.8H32.4z"/>
		<path class="st0" d="M39.1,39.9L38.3,42c-0.4,1.1-0.8,2-1.2,3h0c0.7-0.9,1.3-1.6,2-2.4l2.3-2.7H43l-2.5,6.8h-1.4l0.8-2.1
			c0.4-1,0.7-1.8,1.1-2.7h0c-0.6,0.8-1.2,1.6-1.9,2.3l-2.1,2.4h-1.7l2.5-6.8H39.1z"/>
		<path class="st0" d="M44.3,40.1c0.5-0.1,1.1-0.2,1.8-0.2c0.6,0,1.3,0.1,1.7,0.5c0.4,0.3,0.6,0.8,0.5,1.4c-0.1,0.9-0.7,1.5-1.3,1.9
			c-0.6,0.4-1.4,0.6-2.3,0.6c-0.2,0-0.4,0-0.6,0l-0.9,2.4h-1.4L44.3,40.1z M44.6,43.1c0.1,0,0.3,0,0.5,0c0.9,0,1.5-0.6,1.7-1.2
			c0.1-0.7-0.3-0.9-0.9-0.9c-0.3,0-0.5,0-0.6,0L44.6,43.1z"/>
		<path class="st0" d="M51.4,39.9L50.6,42c-0.4,1.1-0.8,2-1.2,3h0c0.7-0.9,1.3-1.6,2-2.4l2.3-2.7h1.6l-2.5,6.8h-1.4l0.8-2.1
			c0.4-1,0.7-1.8,1.1-2.7h0c-0.6,0.8-1.2,1.6-1.9,2.3l-2.1,2.4h-1.7l2.5-6.8H51.4z"/>
		<path class="st0" d="M58.1,39.9l-1,2.7h2.5l1-2.7H62l-2.5,6.8h-1.4l1-2.9h-2.5l-1,2.9h-1.5l2.5-6.8H58.1z"/>
		<path class="st0" d="M67.1,39.9l-0.5,1.3h-2.3l-2,5.5h-1.5l2.5-6.8H67.1z"/>
	</g>
</g>
</svg>
