<?xml version="1.0" encoding="utf-8"?>
<!-- Generator: Adobe Illustrator 21.0.2, SVG Export Plug-In . SVG Version: 6.00 Build 0)  -->
<svg version="1.1" id="Capa_1" xmlns="http://www.w3.org/2000/svg" xmlns:xlink="http://www.w3.org/1999/xlink" x="0px" y="0px"
	 viewBox="0 0 21 14.8" style="enable-background:new 0 0 21 14.8;" xml:space="preserve">
<style type="text/css">
	.st0{fill:#C6C6C6;}
</style>
<g>
	<path class="st0" d="M20.7,12.6l-4.8-12c-0.1-0.1-0.2-0.3-0.3-0.4C15.4,0.1,15.3,0,15.1,0h-3.9c0.1,0,0.2,0,0.3,0.1
		c0.1,0.1,0.1,0.2,0.1,0.3l0.2,2.2c0,0.1,0,0.2-0.1,0.3C11.6,2.9,11.6,3,11.5,3H9.5c-0.1,0-0.2,0-0.3-0.1C9.2,2.8,9.2,2.7,9.2,2.6
		l0.2-2.2c0-0.1,0-0.2,0.1-0.3C9.6,0,9.7,0,9.8,0H5.9C5.7,0,5.6,0.1,5.4,0.2C5.3,0.3,5.2,0.4,5.1,0.5l-4.8,12
		C0.1,13.1,0,13.5,0,13.9c0,0.6,0.2,0.8,0.5,0.8h8.1c-0.1,0-0.2,0-0.3-0.1c-0.1-0.1-0.1-0.2-0.1-0.3l0.2-3c0-0.1,0-0.2,0.1-0.3
		c0.1-0.1,0.2-0.1,0.3-0.1h3.1c0.1,0,0.2,0,0.3,0.1c0.1,0.1,0.1,0.2,0.1,0.3l0.2,3c0,0.1,0,0.2-0.1,0.3c-0.1,0.1-0.2,0.1-0.3,0.1
		h8.1c0.4,0,0.5-0.3,0.5-0.8C21,13.5,20.9,13.1,20.7,12.6z M12.2,8.5c0,0.1,0,0.2-0.1,0.2c-0.1,0.1-0.2,0.1-0.2,0.1H9.1
		c-0.1,0-0.2,0-0.2-0.1C8.8,8.7,8.7,8.6,8.8,8.5v0L9,4.8c0-0.1,0-0.2,0.1-0.3c0.1-0.1,0.2-0.1,0.3-0.1h2.1c0.1,0,0.2,0,0.3,0.1
		C11.9,4.6,12,4.7,12,4.8L12.2,8.5L12.2,8.5L12.2,8.5z"/>
</g>
</svg>
